<svg xmlns="http://www.w3.org/2000/svg" width="13.499" height="15.999" viewBox="0 0 17.499 19.999">
  <path id="Icon_awesome-unlock" data-name="Icon awesome-unlock" d="M15.624,10H5.937V5.972a2.813,2.813,0,1,1,5.625-.035v.625A.935.935,0,0,0,12.5,7.5h1.25a.935.935,0,0,0,.937-.937V5.937A5.937,5.937,0,1,0,2.812,6v4H1.875A1.875,1.875,0,0,0,0,11.875v6.25A1.875,1.875,0,0,0,1.875,20h13.75A1.875,1.875,0,0,0,17.5,18.124v-6.25A1.875,1.875,0,0,0,15.624,10Z" transform="translate(0 0)" fill="#3e3c4f"/>
</svg>
