<svg xmlns="http://www.w3.org/2000/svg" width="14.318" height="16.363" viewBox="0 0 14.318 16.363">
  <path id="Icon_awesome-unlock" data-name="Icon awesome-unlock" d="M12.784,8.182H4.858v-3.3a2.3,2.3,0,1,1,4.6-.029v.511a.765.765,0,0,0,.767.767H11.25a.765.765,0,0,0,.767-.767V4.858A4.858,4.858,0,1,0,2.3,4.906V8.182H1.534A1.534,1.534,0,0,0,0,9.716v5.114a1.534,1.534,0,0,0,1.534,1.534h11.25a1.534,1.534,0,0,0,1.534-1.534V9.716A1.534,1.534,0,0,0,12.784,8.182Z" transform="translate(0 0)" fill="#00bc85"/>
</svg>
