<svg id="Group_221" data-name="Group 221" xmlns="http://www.w3.org/2000/svg" width="12.833" height="15.077" viewBox="0 0 12.833 15.077">
  <path id="Icon_awesome-lock" data-name="Icon awesome-lock" d="M11.458,6.6h-.687V4.476A4.422,4.422,0,0,0,6.417,0,4.422,4.422,0,0,0,2.062,4.476V6.6H1.375A1.4,1.4,0,0,0,0,8.01v5.654a1.4,1.4,0,0,0,1.375,1.413H11.458a1.4,1.4,0,0,0,1.375-1.413V8.01A1.4,1.4,0,0,0,11.458,6.6Zm-2.979,0H4.354V4.476a2.063,2.063,0,1,1,4.125,0Z" transform="translate(0 0)" fill="#3e3c4f"/>
</svg>
